<svg width="39" height="30" viewBox="0 0 39 30" fill="none" xmlns="http://www.w3.org/2000/svg">
<rect width="39" height="30" rx="5" fill="white"/>
<path d="M15.5 17.5074C15.5 17.2241 15.5802 16.9465 15.7314 16.7069L14.4629 15.9064L15.7314 16.7069L23.2314 4.8212C23.82 3.8885 25.18 3.8885 25.7686 4.8212L33.2686 16.7069C33.4198 16.9465 33.5 17.2241 33.5 17.5074V23C33.5 23.8284 32.8284 24.5 32 24.5H17C16.1716 24.5 15.5 23.8284 15.5 23V17.5074Z" stroke="#818181" stroke-width="3"/>
<path d="M6.5 17.5074C6.5 17.2241 6.58024 16.9465 6.73144 16.7069L5.46288 15.9064L6.73144 16.7069L14.2314 4.8212C14.82 3.8885 16.18 3.8885 16.7686 4.8212L24.2686 16.7069C24.4198 16.9465 24.5 17.2241 24.5 17.5074V23C24.5 23.8284 23.8284 24.5 23 24.5H8C7.17157 24.5 6.5 23.8284 6.5 23V17.5074Z" stroke="#818181" stroke-width="3"/>
</svg>
